<?xml version="1.0" standalone="no"?>
<!DOCTYPE svg PUBLIC "-//W3C//DTD SVG 20010904//EN"
 "http://www.w3.org/TR/2001/REC-SVG-20010904/DTD/svg10.dtd">
<svg version="1.0" xmlns="http://www.w3.org/2000/svg"
 width="1024.000000pt" height="133.000000pt" viewBox="0 0 1024.000000 133.000000"
 preserveAspectRatio="xMidYMid meet">

<g transform="translate(0.000000,133.000000) scale(0.100000,-0.100000)"
fill="#000000" stroke="none">
<path d="M9192 1158 c-31 -31 8 -71 64 -66 47 4 53 21 18 53 -29 27 -63 32
-82 13z"/>
<path d="M8532 1138 c-17 -17 -15 -55 4 -62 15 -6 80 19 89 34 3 5 2 15 -1 24
-7 19 -74 22 -92 4z"/>
<path d="M8680 1102 c-41 -20 -42 -31 -3 -53 27 -15 32 -15 63 0 43 20 49 44
15 59 -33 15 -33 15 -75 -6z"/>
<path d="M9062 1098 c-15 -15 -16 -45 -1 -50 7 -2 1 -19 -15 -42 -32 -48 -32
-58 -2 -93 l24 -27 35 27 c20 15 41 27 48 27 19 0 47 39 42 60 -3 10 -14 26
-24 36 -10 9 -19 22 -19 29 0 34 -63 58 -88 33z"/>
<path d="M9275 1040 c-8 -26 9 -47 53 -66 41 -17 62 -6 62 32 0 48 -101 78
-115 34z"/>
<path d="M3123 1018 c-14 -7 -23 -20 -23 -33 0 -18 7 -24 34 -28 69 -11 107
21 66 55 -25 20 -45 22 -77 6z"/>
<path d="M8463 1019 c-19 -19 -15 -57 7 -71 11 -7 20 -24 20 -38 0 -44 10 -65
38 -78 25 -12 29 -10 50 13 12 14 22 35 22 45 0 10 5 22 10 25 6 3 10 22 10
41 0 27 -4 34 -20 34 -11 0 -20 4 -20 9 0 4 -15 11 -32 14 -18 4 -42 9 -53 12
-11 3 -26 0 -32 -6z"/>
<path d="M8703 996 c-29 -14 -30 -55 -3 -79 20 -17 23 -17 58 -1 52 24 72 44
72 71 0 21 -4 23 -52 22 -29 -1 -63 -6 -75 -13z"/>
<path d="M7926 945 c-23 -21 -26 -28 -16 -40 16 -20 65 -19 95 1 32 21 32 38
0 52 -37 17 -49 15 -79 -13z"/>
<path d="M4248 949 c-24 -9 -26 -13 -16 -34 14 -32 61 -42 93 -21 32 21 31 38
-2 54 -31 14 -38 14 -75 1z"/>
<path d="M3243 943 c-15 -3 -23 -12 -23 -24 0 -34 26 -50 72 -47 39 3 43 6 46
30 3 22 -2 30 -23 38 -27 10 -33 10 -72 3z"/>
<path d="M9229 933 c-4 -58 13 -78 73 -88 85 -15 105 44 28 82 -55 28 -100 30
-101 6z"/>
<path d="M3007 917 c-12 -19 -13 -26 -2 -41 9 -12 12 -35 8 -69 -4 -46 -2 -55
19 -75 l25 -23 51 50 c29 28 52 59 52 69 0 25 -99 112 -129 112 -5 0 -15 -10
-24 -23z"/>
<path d="M9951 917 c-27 -14 -49 -43 -39 -53 4 -3 22 -10 40 -13 36 -8 88 18
88 44 0 9 -50 37 -64 35 -1 0 -12 -6 -25 -13z"/>
<path d="M8063 906 c-27 -12 -31 -51 -7 -60 32 -12 81 -6 98 13 16 18 16 20
-5 40 -25 23 -51 25 -86 7z"/>
<path d="M8694 890 c-5 -5 -20 -10 -34 -12 -19 -2 -25 -9 -25 -28 0 -21 5 -26
33 -28 41 -4 92 18 92 39 0 19 -53 42 -66 29z"/>
<path d="M9127 884 c-28 -28 27 -84 82 -84 24 0 31 4 31 20 0 20 -36 60 -54
60 -6 0 -20 3 -31 6 -11 3 -24 2 -28 -2z"/>
<path d="M4129 863 c-13 -16 -13 -22 -1 -45 12 -24 11 -32 -2 -60 -21 -41 -20
-51 8 -77 l24 -22 55 42 c79 59 81 73 18 131 -56 52 -78 58 -102 31z"/>
<path d="M4360 867 c-22 -11 -29 -40 -15 -55 8 -9 82 -21 98 -16 31 10 21 50
-17 68 -40 19 -35 19 -66 3z"/>
<path d="M10068 857 c-47 -37 2 -88 65 -68 40 14 51 32 34 55 -16 22 -77 30
-99 13z"/>
<path d="M2528 836 c-21 -15 -24 -62 -5 -69 21 -7 71 12 89 34 15 18 16 23 4
35 -18 18 -65 18 -88 0z"/>
<path d="M7836 834 c-10 -26 -7 -51 9 -64 9 -8 15 -30 15 -59 0 -40 4 -48 27
-58 24 -11 30 -10 50 9 13 12 23 27 23 33 0 7 9 20 20 30 35 32 23 65 -35 96
-58 31 -100 36 -109 13z"/>
<path d="M259 814 c-11 -14 -9 -20 15 -41 52 -44 135 -12 92 36 -24 26 -87 29
-107 5z"/>
<path d="M3212 818 c-18 -18 -15 -42 7 -62 28 -25 127 -13 143 17 9 17 7 24
-12 39 -26 21 -119 25 -138 6z"/>
<path d="M3692 818 c-18 -18 -14 -34 14 -52 30 -21 73 -17 87 6 23 35 -70 77
-101 46z"/>
<path d="M2675 804 c-40 -21 -47 -35 -28 -56 20 -22 41 -23 81 -2 40 19 48 32
31 49 -24 22 -53 25 -84 9z"/>
<path d="M9836 798 c-14 -20 -14 -24 1 -47 10 -16 16 -42 14 -73 -2 -41 1 -49
25 -64 28 -19 49 -13 68 21 6 11 17 25 24 33 22 24 33 52 28 70 -6 16 -115 82
-136 82 -5 0 -16 -10 -24 -22z"/>
<path d="M1916 784 c-20 -21 -24 -30 -15 -40 15 -19 64 -18 94 2 32 21 32 38
0 52 -37 17 -49 15 -79 -14z"/>
<path d="M8083 789 c-37 -14 -43 -32 -19 -60 18 -21 28 -25 61 -21 44 5 85 36
85 64 0 10 -3 18 -7 19 -67 4 -105 4 -120 -2z"/>
<path d="M146 761 c-14 -15 -15 -24 -6 -40 8 -17 6 -28 -11 -59 -25 -44 -21
-80 11 -100 19 -12 26 -10 54 11 17 14 40 26 51 28 22 5 42 49 32 70 -19 39
-76 104 -93 107 -11 2 -28 -6 -38 -17z"/>
<path d="M5529 764 c-19 -24 1 -48 44 -52 38 -3 77 11 77 29 0 37 -94 55 -121
23z"/>
<path d="M9516 752 c-15 -18 -15 -20 1 -34 40 -35 113 -33 113 3 0 43 -82 65
-114 31z"/>
<path d="M2053 746 c-25 -12 -30 -35 -11 -54 20 -20 83 -15 103 8 18 20 18 21
-3 40 -23 22 -54 24 -89 6z"/>
<path d="M3571 744 c-11 -13 -11 -20 0 -40 10 -20 10 -29 1 -44 -7 -11 -12
-28 -12 -39 0 -11 -4 -21 -10 -23 -5 -1 1 -16 14 -32 22 -28 25 -29 55 -17 17
8 35 19 39 25 4 6 16 16 27 22 11 6 21 24 23 39 3 22 -6 38 -44 76 -51 51 -70
58 -93 33z"/>
<path d="M4322 748 c-55 -55 75 -119 138 -69 20 16 23 23 14 38 -6 10 -22 20
-35 21 -13 2 -28 8 -33 13 -14 13 -70 11 -84 -3z"/>
<path d="M10067 732 c-22 -24 -21 -45 1 -65 33 -30 122 -13 140 28 10 21 8 27
-11 40 -31 22 -110 20 -130 -3z"/>
<path d="M3132 728 c-31 -31 8 -71 64 -66 48 4 65 29 40 57 -21 24 -84 29
-104 9z"/>
<path d="M3813 726 c-25 -12 -30 -35 -11 -54 7 -7 34 -12 60 -12 40 0 48 3 48
18 0 22 -40 62 -61 61 -8 -1 -24 -6 -36 -13z"/>
<path d="M361 716 c-26 -31 31 -81 85 -74 21 2 30 9 32 24 6 45 -88 85 -117
50z"/>
<path d="M2452 708 c-19 -19 -14 -42 13 -68 14 -13 25 -28 24 -34 -5 -45 3
-64 30 -76 17 -6 35 -9 40 -5 19 11 63 114 59 137 -5 38 -137 75 -166 46z"/>
<path d="M5666 703 c-42 -22 -29 -59 24 -63 64 -5 80 -1 80 24 0 42 -57 64
-104 39z"/>
<path d="M2715 703 c-11 -3 -26 -10 -32 -15 -36 -29 9 -99 51 -81 11 5 36 16
54 24 27 12 32 19 32 46 0 32 -1 33 -42 32 -24 -1 -52 -4 -63 -6z"/>
<path d="M4800 695 c-23 -28 0 -50 51 -50 42 0 44 1 44 30 0 28 -3 30 -41 33
-28 2 -45 -2 -54 -13z"/>
<path d="M9405 697 c-14 -11 -17 -21 -12 -46 5 -22 1 -43 -13 -68 -17 -33 -18
-39 -4 -64 18 -37 52 -38 84 -4 13 14 30 25 38 25 17 0 41 28 42 48 0 18 -89
122 -104 122 -7 0 -20 -6 -31 -13z"/>
<path d="M7386 692 c-29 -6 -57 -44 -44 -59 15 -19 69 -15 98 6 20 16 22 22
12 34 -15 18 -40 25 -66 19z"/>
<path d="M1832 678 c-16 -16 -15 -43 3 -58 10 -8 15 -30 15 -64 0 -46 3 -52
27 -63 24 -11 30 -10 50 9 13 12 23 27 23 33 0 7 9 20 20 30 35 31 21 85 -22
85 -11 0 -28 9 -40 20 -24 22 -58 26 -76 8z"/>
<path d="M5439 674 c-10 -12 -10 -22 -1 -48 9 -24 9 -41 2 -60 -5 -15 -10 -31
-10 -35 0 -16 38 -51 56 -51 20 0 104 86 104 107 0 17 -70 83 -87 83 -7 0 -13
5 -13 10 0 16 -36 12 -51 -6z"/>
<path d="M8002 678 c-31 -31 5 -76 51 -63 35 10 67 28 67 37 0 33 -91 53 -118
26z"/>
<path d="M4237 662 c-19 -20 -6 -52 21 -52 10 0 23 -5 28 -10 8 -8 19 -7 37 1
41 19 33 50 -16 68 -39 15 -51 14 -70 -7z"/>
<path d="M9615 649 c-10 -30 21 -57 69 -61 54 -4 70 21 36 57 -31 33 -95 36
-105 4z"/>
<path d="M4943 634 c-59 -25 -36 -64 38 -64 45 0 59 10 59 41 0 7 -53 41 -62
38 -2 0 -18 -7 -35 -15z"/>
<path d="M7493 638 c-25 -12 -30 -37 -11 -56 19 -19 76 -14 100 8 21 19 21 20
3 40 -20 22 -57 25 -92 8z"/>
<path d="M10003 639 c-27 -14 -34 -41 -16 -57 20 -19 103 -11 117 10 22 35
-54 70 -101 47z"/>
<path d="M2057 622 c-21 -23 -21 -32 1 -58 34 -40 142 -4 142 48 0 10 -1 18
-2 19 -2 0 -30 3 -64 5 -50 4 -64 1 -77 -14z"/>
<path d="M320 604 c-24 -28 -1 -67 48 -83 51 -16 88 -8 97 20 8 23 -23 59 -49
59 -8 0 -18 5 -21 10 -10 16 -61 12 -75 -6z"/>
<path d="M3757 613 c-12 -11 -7 -47 8 -67 20 -26 122 -29 139 -3 14 22 -2 51
-33 55 -11 2 -21 8 -21 13 0 10 -83 13 -93 2z"/>
<path d="M4712 608 c-15 -15 -16 -55 -1 -64 10 -6 8 -26 -7 -76 -3 -9 6 -27
20 -41 30 -30 63 -26 76 8 5 13 17 29 28 36 26 19 36 55 20 68 -46 39 -105 81
-113 81 -6 0 -16 -5 -23 -12z"/>
<path d="M742 588 c-31 -31 14 -65 72 -54 44 8 49 17 30 44 -17 25 -81 31
-102 10z"/>
<path d="M2658 582 c-71 -36 -16 -91 57 -57 43 21 46 49 6 63 -23 8 -37 7 -63
-6z"/>
<path d="M5663 586 c-26 -12 -28 -22 -10 -59 10 -22 19 -27 48 -27 55 0 89 20
89 53 0 25 -3 27 -39 27 -22 0 -43 5 -46 10 -7 12 -12 11 -42 -4z"/>
<path d="M6162 568 c-18 -18 -14 -34 14 -52 52 -35 118 1 80 43 -21 23 -75 28
-94 9z"/>
<path d="M7272 568 c-16 -16 -15 -43 3 -58 9 -8 15 -30 15 -59 0 -53 13 -71
50 -71 30 0 50 16 50 40 0 9 9 25 20 35 40 37 17 86 -47 100 -18 3 -35 11 -38
16 -9 13 -39 11 -53 -3z"/>
<path d="M223 553 c-18 -7 -16 -37 5 -61 22 -25 74 -35 97 -18 17 12 17 14 0
39 -19 30 -74 51 -102 40z"/>
<path d="M9582 548 c-30 -30 -3 -71 58 -88 65 -17 110 13 82 56 -7 12 -92 44
-115 44 -7 0 -18 -5 -25 -12z"/>
<path d="M3669 538 c-14 -10 -14 -14 -2 -39 8 -16 23 -29 32 -29 10 0 33 -3
50 -6 28 -6 31 -4 31 17 0 30 -9 43 -37 58 -27 14 -53 13 -74 -1z"/>
<path d="M861 506 l-22 -24 22 -16 c31 -21 105 -21 113 0 3 8 2 24 -4 34 -20
37 -77 41 -109 6z"/>
<path d="M1992 518 c-31 -31 5 -72 55 -62 80 16 81 67 2 72 -26 2 -49 -2 -57
-10z"/>
<path d="M4922 518 c-15 -15 -16 -58 -2 -58 6 0 10 -9 10 -20 0 -17 -7 -20
-44 -20 -51 0 -76 -20 -56 -45 18 -21 118 -21 127 1 3 8 1 20 -6 27 -19 19
-12 27 27 27 47 0 82 24 82 56 0 19 -5 24 -24 24 -14 0 -28 5 -31 10 -9 14
-68 13 -83 -2z"/>
<path d="M7502 518 c-16 -16 -15 -46 2 -63 9 -9 27 -12 57 -8 63 8 79 19 79
53 l0 30 -63 0 c-36 0 -68 -5 -75 -12z"/>
<path d="M634 485 c-4 -15 -1 -32 6 -40 10 -12 10 -25 0 -62 -13 -45 -13 -47
14 -70 33 -28 41 -25 101 46 l45 53 -36 36 c-65 65 -119 81 -130 37z"/>
<path d="M6040 495 c-10 -12 -10 -19 -2 -27 15 -15 15 -51 2 -64 -17 -17 -15
-83 3 -101 15 -15 19 -15 52 3 19 10 35 21 35 25 0 3 11 11 25 17 41 19 34 61
-21 116 -49 48 -73 56 -94 31z"/>
<path d="M5564 486 c-33 -25 -7 -50 56 -54 64 -4 79 7 56 42 -13 20 -25 26
-54 26 -21 0 -47 -6 -58 -14z"/>
<path d="M6283 483 c-16 -3 -23 -12 -23 -27 0 -34 19 -46 72 -46 42 0 48 3 48
21 0 23 -37 59 -60 57 -8 0 -25 -3 -37 -5z"/>
<path d="M9483 483 c-19 -7 -16 -38 6 -57 24 -22 96 -33 105 -17 26 41 -57 96
-111 74z"/>
<path d="M1362 440 c-12 -11 -22 -30 -22 -40 0 -29 70 -28 96 1 39 43 -30 80
-74 39z"/>
<path d="M6792 439 c-28 -11 -40 -38 -21 -50 8 -5 34 -8 59 -7 35 2 46 7 48
22 2 10 0 22 -5 26 -15 13 -57 18 -81 9z"/>
<path d="M1503 414 c-17 -9 -34 -23 -37 -31 -7 -17 20 -42 45 -43 24 0 80 30
86 47 12 32 -47 49 -94 27z"/>
<path d="M7490 422 c-35 -4 -70 -23 -70 -38 0 -6 11 -19 25 -28 24 -16 28 -16
65 0 22 10 40 25 40 34 0 20 -29 36 -60 32z"/>
<path d="M852 398 c-16 -16 -15 -53 1 -66 54 -43 162 -12 141 42 -7 17 -19 22
-84 30 -30 4 -50 2 -58 -6z"/>
<path d="M6945 380 c-3 -6 -17 -10 -30 -10 -30 0 -40 -28 -19 -51 23 -26 85
-25 109 1 15 16 15 21 3 32 -26 25 -57 38 -63 28z"/>
<path d="M6223 354 c-9 -23 14 -63 43 -74 90 -35 157 25 79 71 -39 23 -113 25
-122 3z"/>
<path d="M6682 338 c-15 -15 -16 -45 -2 -53 13 -8 13 -51 -1 -77 -9 -17 -6
-25 19 -51 l30 -30 46 49 c37 39 46 55 44 78 -2 16 -12 34 -22 40 -11 6 -31
21 -45 34 -29 25 -51 28 -69 10z"/>
<path d="M1285 310 c-21 -23 -19 -33 10 -60 18 -17 25 -34 25 -61 0 -20 6 -42
14 -48 19 -16 67 -10 77 9 55 104 51 150 -12 150 -15 0 -30 4 -33 9 -11 17
-66 18 -81 1z"/>
<path d="M763 306 c-18 -21 -16 -33 9 -50 28 -20 78 -21 103 -2 18 13 18 14
-2 35 -26 28 -93 38 -110 17z"/>
<path d="M1550 313 c-44 -16 -67 -67 -35 -79 26 -10 17 -29 -20 -43 -44 -15
-48 -50 -9 -68 27 -12 45 -7 87 26 23 19 22 28 -9 44 l-26 13 56 24 c53 24 71
46 59 76 -5 14 -71 19 -103 7z"/>
<path d="M6133 289 c-12 -12 0 -45 22 -61 12 -9 89 -10 98 -2 8 8 -11 45 -32
61 -20 16 -73 17 -88 2z"/>
<path d="M6893 249 c-15 -16 -17 -49 -3 -49 6 0 10 -6 10 -14 0 -20 21 -25 68
-16 49 9 72 25 72 51 0 24 -9 28 -77 35 -41 4 -62 2 -70 -7z"/>
<path d="M6809 144 c-23 -28 1 -49 56 -49 55 0 79 21 56 49 -18 21 -94 21
-112 0z"/>
</g>
</svg>
